<svg id="SvgjsSvg1300" width="384" height="399" xmlns="http://www.w3.org/2000/svg" version="1.1" xmlns:xlink="http://www.w3.org/1999/xlink" xmlns:svgjs="http://svgjs.com/svgjs"><defs id="SvgjsDefs1301"><marker id="SvgjsMarker1346" markerWidth="16" markerHeight="12" refX="16" refY="6" viewBox="0 0 16 12" orient="auto" markerUnits="userSpaceOnUse" stroke-dasharray="0,0"><path id="SvgjsPath1347" d="M0,2 L14,6 L0,11 L0,2" fill="#323232" stroke="#323232" stroke-width="2"></path></marker><marker id="SvgjsMarker1350" markerWidth="16" markerHeight="12" refX="16" refY="6" viewBox="0 0 16 12" orient="auto" markerUnits="userSpaceOnUse" stroke-dasharray="0,0"><path id="SvgjsPath1351" d="M0,2 L14,6 L0,11 L0,2" fill="#323232" stroke="#323232" stroke-width="2"></path></marker><marker id="SvgjsMarker1366" markerWidth="16" markerHeight="12" refX="16" refY="6" viewBox="0 0 16 12" orient="auto" markerUnits="userSpaceOnUse" stroke-dasharray="0,0"><path id="SvgjsPath1367" d="M0,2 L14,6 L0,11 L0,2" fill="#323232" stroke="#323232" stroke-width="2"></path></marker><marker id="SvgjsMarker1376" markerWidth="16" markerHeight="12" refX="16" refY="6" viewBox="0 0 16 12" orient="auto" markerUnits="userSpaceOnUse" stroke-dasharray="0,0"><path id="SvgjsPath1377" d="M0,2 L14,6 L0,11 L0,2" fill="#323232" stroke="#323232" stroke-width="2"></path></marker></defs><g id="SvgjsG1302" transform="translate(36,25)"><path id="SvgjsPath1303" d="M 0 0L 323 0L 323 349L 0 349Z" stroke="rgba(50,50,50,1)" stroke-width="2" fill-opacity="1" fill="#ffffff"></path><g id="SvgjsG1304"><text id="SvgjsText1305" font-family="微软雅黑" text-anchor="middle" font-size="13px" width="303px" fill="#323232" font-weight="400" align="middle" lineHeight="125%" anchor="middle" family="微软雅黑" size="13px" weight="400" font-style="" opacity="1" y="164.875" transform="rotate(0)"></text></g></g><g id="SvgjsG1306" transform="translate(145,131)"><path id="SvgjsPath1307" d="M 0 4Q 0 0 4 0L 159 0Q 163 0 163 4L 163 36Q 163 40 159 40L 4 40Q 0 40 0 36Z" stroke="rgba(50,50,50,1)" stroke-width="2" fill-opacity="1" fill="#ffffff"></path><g id="SvgjsG1308"><text id="SvgjsText1309" font-family="微软雅黑" text-anchor="middle" font-size="13px" width="143px" fill="#323232" font-weight="400" align="middle" lineHeight="125%" anchor="middle" family="微软雅黑" size="13px" weight="400" font-style="" opacity="1" y="10.375" transform="rotate(0)"><tspan id="SvgjsTspan1310" dy="16" x="81.5"><tspan id="SvgjsTspan1311" style="text-decoration:;">The 128th Secret Key</tspan></tspan></text></g></g><g id="SvgjsG1312" transform="translate(25,64)"><path id="SvgjsPath1313" d="M 0 0L 324 0L 324 63L 0 63Z" stroke="none" fill="none"></path><g id="SvgjsG1314"><text id="SvgjsText1315" font-family="微软雅黑" text-anchor="middle" font-size="13px" width="324px" fill="#323232" font-weight="400" align="middle" lineHeight="125%" anchor="middle" family="微软雅黑" size="13px" weight="400" font-style="" opacity="1" y="13.375" transform="rotate(0)"><tspan id="SvgjsTspan1316" dy="16" x="162"><tspan id="SvgjsTspan1317" style="text-decoration:;">The game uses a secret key with SHA-256 to </tspan></tspan><tspan id="SvgjsTspan1318" dy="16" x="162"><tspan id="SvgjsTspan1319" style="text-decoration:;">generate a chain of 128 hashes.</tspan></tspan></text></g></g><g id="SvgjsG1320" transform="translate(150,236)"><path id="SvgjsPath1321" d="M 0 4Q 0 0 4 0L 159 0Q 163 0 163 4L 163 36Q 163 40 159 40L 4 40Q 0 40 0 36Z" stroke="rgba(50,50,50,1)" stroke-width="2" fill-opacity="1" fill="#ffffff"></path><g id="SvgjsG1322"><text id="SvgjsText1323" font-family="微软雅黑" text-anchor="middle" font-size="13px" width="143px" fill="#323232" font-weight="400" align="middle" lineHeight="125%" anchor="middle" family="微软雅黑" size="13px" weight="400" font-style="" opacity="1" y="10.375" transform="rotate(0)"><tspan id="SvgjsTspan1324" dy="16" x="81.5"><tspan id="SvgjsTspan1325" style="text-decoration:;">The Second Secret Key</tspan></tspan></text></g></g><g id="SvgjsG1326" transform="translate(149,297)"><path id="SvgjsPath1327" d="M 0 4Q 0 0 4 0L 161 0Q 165 0 165 4L 165 34Q 165 38 161 38L 4 38Q 0 38 0 34Z" stroke="rgba(50,50,50,1)" stroke-width="2" fill-opacity="1" fill="#ffffff"></path><g id="SvgjsG1328"><text id="SvgjsText1329" font-family="微软雅黑" text-anchor="middle" font-size="13px" width="145px" fill="#323232" font-weight="400" align="middle" lineHeight="125%" anchor="middle" family="微软雅黑" size="13px" weight="400" font-style="" opacity="1" y="9.375" transform="rotate(0)"><tspan id="SvgjsTspan1330" dy="16" x="82.5"><tspan id="SvgjsTspan1331" style="text-decoration:;">The First Secret Key</tspan></tspan></text></g></g><g id="SvgjsG1332" transform="translate(99,141)"><path id="SvgjsPath1333" d="M 0 10C 0 -3.3333333333333335 20 -3.3333333333333335 20 10C 20 23.333333333333332 0 23.333333333333332 0 10Z" stroke="none" fill-opacity="1" fill="#323232"></path><g id="SvgjsG1334"><text id="SvgjsText1335" font-family="微软雅黑" text-anchor="middle" font-size="13px" width="60px" fill="#323232" font-weight="400" align="middle" lineHeight="125%" anchor="middle" family="微软雅黑" size="13px" weight="400" font-style="" opacity="1" y="25.375" transform="rotate(0)"></text></g></g><g id="SvgjsG1336" transform="translate(99,240)"><path id="SvgjsPath1337" d="M 0 10C 0 -3.3333333333333335 20 -3.3333333333333335 20 10C 20 23.333333333333332 0 23.333333333333332 0 10Z" stroke="none" fill-opacity="1" fill="#323232"></path><g id="SvgjsG1338"><text id="SvgjsText1339" font-family="微软雅黑" text-anchor="middle" font-size="13px" width="60px" fill="#323232" font-weight="400" align="middle" lineHeight="125%" anchor="middle" family="微软雅黑" size="13px" weight="400" font-style="" opacity="1" y="25.375" transform="rotate(0)"></text></g></g><g id="SvgjsG1340" transform="translate(99,306)"><path id="SvgjsPath1341" d="M 0 10C 0 -3.3333333333333335 20 -3.3333333333333335 20 10C 20 23.333333333333332 0 23.333333333333332 0 10Z" stroke="none" fill-opacity="1" fill="#323232"></path><g id="SvgjsG1342"><text id="SvgjsText1343" font-family="微软雅黑" text-anchor="middle" font-size="13px" width="60px" fill="#323232" font-weight="400" align="middle" lineHeight="125%" anchor="middle" family="微软雅黑" size="13px" weight="400" font-style="" opacity="1" y="25.375" transform="rotate(0)"></text></g></g><g id="SvgjsG1344"><path id="SvgjsPath1345" d="M109 161L109 178L109 178L109 195" stroke="#323232" stroke-width="2" fill="none" marker-end="url(#SvgjsMarker1346)"></path></g><g id="SvgjsG1348"><path id="SvgjsPath1349" d="M109 260L109 283L109 283L109 306" stroke="#323232" stroke-width="2" fill="none" marker-end="url(#SvgjsMarker1350)"></path></g><g id="SvgjsG1352" transform="translate(25,148)"><path id="SvgjsPath1353" d="M 0 0L 120 0L 120 40L 0 40Z" stroke="none" fill="none"></path><g id="SvgjsG1354"><text id="SvgjsText1355" font-family="微软雅黑" text-anchor="middle" font-size="13px" width="120px" fill="#323232" font-weight="400" align="middle" lineHeight="125%" anchor="middle" family="微软雅黑" size="13px" weight="400" font-style="" opacity="1" y="10.375" transform="rotate(0)"><tspan id="SvgjsTspan1356" dy="16" x="60"><tspan id="SvgjsTspan1357" style="text-decoration:;">hash</tspan></tspan></text></g></g><g id="SvgjsG1358" transform="translate(25,257)"><path id="SvgjsPath1359" d="M 0 0L 120 0L 120 40L 0 40Z" stroke="none" fill="none"></path><g id="SvgjsG1360"><text id="SvgjsText1361" font-family="微软雅黑" text-anchor="middle" font-size="13px" width="120px" fill="#323232" font-weight="400" align="middle" lineHeight="125%" anchor="middle" family="微软雅黑" size="13px" weight="400" font-style="" opacity="1" y="10.375" transform="rotate(0)"><tspan id="SvgjsTspan1362" dy="16" x="60"><tspan id="SvgjsTspan1363" style="text-decoration:;">hash</tspan></tspan></text></g></g><g id="SvgjsG1364"><path id="SvgjsPath1365" d="M231.5 276L231.5 286.5L231.5 286.5L231.5 297" stroke="#323232" stroke-width="2" fill="none" marker-end="url(#SvgjsMarker1366)"></path></g><g id="SvgjsG1368" transform="translate(167.5,188)"><path id="SvgjsPath1369" d="M 0 0L 118 0L 118 20L 0 20Z" stroke="none" fill="none"></path><g id="SvgjsG1370"><text id="SvgjsText1371" font-family="微软雅黑" text-anchor="middle" font-size="30px" width="118px" fill="#323232" font-weight="400" align="middle" lineHeight="125%" anchor="middle" family="微软雅黑" size="30px" weight="400" font-style="" opacity="1" y="-14.75" transform="rotate(0)"><tspan id="SvgjsTspan1372" dy="37" x="59"><tspan id="SvgjsTspan1373" style="text-decoration:;">......</tspan></tspan></text></g></g><g id="SvgjsG1374"><path id="SvgjsPath1375" d="M226.5 171L226.5 182.5L226.5 182.5L226.5 194" stroke="#323232" stroke-width="2" fill="none" marker-end="url(#SvgjsMarker1376)"></path></g><g id="SvgjsG1378" transform="translate(72,32)"><path id="SvgjsPath1379" d="M 0 0L 251 0L 251 41L 0 41Z" stroke="none" fill="none"></path><g id="SvgjsG1380"><text id="SvgjsText1381" font-family="微软雅黑" text-anchor="middle" font-size="16px" width="251px" fill="#323232" font-weight="700" align="middle" lineHeight="125%" anchor="middle" family="微软雅黑" size="16px" weight="700" font-style="" opacity="1" y="8.5" transform="rotate(0)"><tspan id="SvgjsTspan1382" dy="20" x="125.5"><tspan id="SvgjsTspan1383" style="text-decoration:;">Server Secret Key Hash Chain</tspan></tspan></text></g></g></svg>