<svg id="SvgjsSvg1172" width="516" height="350" xmlns="http://www.w3.org/2000/svg" version="1.1" xmlns:xlink="http://www.w3.org/1999/xlink" xmlns:svgjs="http://svgjs.com/svgjs"><defs id="SvgjsDefs1173"></defs><g id="SvgjsG1174" transform="translate(25,25)"><path id="SvgjsPath1175" d="M 0 0L 466 0L 466 300L 0 300Z" stroke="rgba(50,50,50,1)" stroke-width="2" fill-opacity="1" fill="#ffffff"></path><g id="SvgjsG1176"><text id="SvgjsText1177" font-family="微软雅黑" text-anchor="middle" font-size="13px" width="446px" fill="#323232" font-weight="400" align="middle" lineHeight="125%" anchor="middle" family="微软雅黑" size="13px" weight="400" font-style="" opacity="1" y="140.375" transform="rotate(0)"></text></g></g><g id="SvgjsG1178" transform="translate(54,37)"><path id="SvgjsPath1179" d="M 0 0L 388 0L 388 48L 0 48Z" stroke="none" fill="none"></path><g id="SvgjsG1180"><text id="SvgjsText1181" font-family="微软雅黑" text-anchor="middle" font-size="16px" width="388px" fill="#323232" font-weight="700" align="middle" lineHeight="125%" anchor="middle" family="微软雅黑" size="16px" weight="700" font-style="" opacity="1" y="12" transform="rotate(0)"><tspan id="SvgjsTspan1182" dy="20" x="194"><tspan id="SvgjsTspan1183" style="text-decoration:;">Random Seed = sha256(Signature+Secret Key)</tspan></tspan></text></g></g><g id="SvgjsG1184" transform="translate(85,102)"><path id="SvgjsPath1185" d="M 0 4Q 0 0 4 0L 334 0Q 338 0 338 4L 338 34Q 338 38 334 38L 4 38Q 0 38 0 34Z" stroke="rgba(50,50,50,1)" stroke-width="2" fill-opacity="1" fill="#ffffff"></path><g id="SvgjsG1186"><text id="SvgjsText1187" font-family="微软雅黑" text-anchor="middle" font-size="13px" width="318px" fill="#323232" font-weight="400" align="middle" lineHeight="125%" anchor="middle" family="微软雅黑" size="13px" weight="400" font-style="" opacity="1" y="9.375" transform="rotate(0)"><tspan id="SvgjsTspan1188" dy="16" x="169"><tspan id="SvgjsTspan1189" style="text-decoration:;">The First Seed=sha256(Signature+Secret Key1)</tspan></tspan></text></g></g><g id="SvgjsG1190" transform="translate(186,204.5)"><path id="SvgjsPath1191" d="M 0 0L 120 0L 120 40L 0 40Z" stroke="none" fill="none"></path><g id="SvgjsG1192"><text id="SvgjsText1193" font-family="微软雅黑" text-anchor="middle" font-size="30px" width="120px" fill="#323232" font-weight="400" align="middle" lineHeight="125%" anchor="middle" family="微软雅黑" size="30px" weight="400" font-style="" opacity="1" y="-4.75" transform="rotate(0)"><tspan id="SvgjsTspan1194" dy="37" x="60"><tspan id="SvgjsTspan1195" style="text-decoration:;">......</tspan></tspan></text></g></g><g id="SvgjsG1196" transform="translate(85,164)"><path id="SvgjsPath1197" d="M 0 4Q 0 0 4 0L 334 0Q 338 0 338 4L 338 34Q 338 38 334 38L 4 38Q 0 38 0 34Z" stroke="rgba(50,50,50,1)" stroke-width="2" fill-opacity="1" fill="#ffffff"></path><g id="SvgjsG1198"><text id="SvgjsText1199" font-family="微软雅黑" text-anchor="middle" font-size="13px" width="318px" fill="#323232" font-weight="400" align="middle" lineHeight="125%" anchor="middle" family="微软雅黑" size="13px" weight="400" font-style="" opacity="1" y="9.375" transform="rotate(0)"><tspan id="SvgjsTspan1200" dy="16" x="169"><tspan id="SvgjsTspan1201" style="text-decoration:;">The Second Seed=sha256(Signature+Secret Key2)</tspan></tspan></text></g></g><g id="SvgjsG1202" transform="translate(85,257)"><path id="SvgjsPath1203" d="M 0 4Q 0 0 4 0L 334 0Q 338 0 338 4L 338 34Q 338 38 334 38L 4 38Q 0 38 0 34Z" stroke="rgba(50,50,50,1)" stroke-width="2" fill-opacity="1" fill="#ffffff"></path><g id="SvgjsG1204"><text id="SvgjsText1205" font-family="微软雅黑" text-anchor="middle" font-size="13px" width="318px" fill="#323232" font-weight="400" align="middle" lineHeight="125%" anchor="middle" family="微软雅黑" size="13px" weight="400" font-style="" opacity="1" y="9.375" transform="rotate(0)"><tspan id="SvgjsTspan1206" dy="16" x="169"><tspan id="SvgjsTspan1207" style="text-decoration:;">The 128th Seed=sha256(Signature+Secret Key128)</tspan></tspan></text></g></g></svg>